# xmcd CD database file
#
# Track frame offsets:
#	150
#	14941
#	27977
#	42547
#	56982
#	71385
#	84536
#	98735
#	113149
#	126358
#	138554
#	152137
#	165348
#	179195
#	192677
#	206578
#	220715
#	233176
#	245463
#	257578
#	269764
#	283835
#	296165
#	309905
#
# Disc length: 4307 seconds
#
# Revision: 0
# Processed by: cddbd v1.5.1PL0 Copyright (c) Steve Scherf et al.
# Submitted via: CDex 1.51
#
DISCID=7f10d118
DTITLE=John Hardee - Classics 1946-48
DYEAR=1946
DGENRE=Jazz
TTITLE0=Tired
TTITLE1=Blue Skies
TTITLE2=Hardee's Partee
TTITLE3=Idaho
TTITLE4=What Is This Thing Called Love
TTITLE5=Nervous From The Service
TTITLE6=River Edge Rock
TTITLE7=Sweet And Lovely
TTITLE8=Bottle It
TTITLE9=Denzil's Best
TTITLE10=Right Foot, Then Left Foot
TTITLE11=Four Wheel Drive
TTITLE12=Hand In Hand Blues
TTITLE13=Taylor-Made Gal
TTITLE14=Swing Song
TTITLE15=Stardust
TTITLE16=Red Man's Bounce
TTITLE17=Lunatic
TTITLE18=Can't Help Lovin' That Man
TTITLE19=Baby Watch That Stuff
TTITLE20=Cobblestones
TTITLE21=Prelude To A Kiss
TTITLE22=Boppin' In B Flat
TTITLE23=Man With A Horn
EXTD=YEAR: 1946
EXTT0=
EXTT1=
EXTT2=
EXTT3=
EXTT4=
EXTT5=
EXTT6=
EXTT7=
EXTT8=
EXTT9=
EXTT10=
EXTT11=
EXTT12=
EXTT13=
EXTT14=
EXTT15=
EXTT16=
EXTT17=
EXTT18=
EXTT19=
EXTT20=
EXTT21=
EXTT22=
EXTT23=
PLAYORDER=
